<?xml version="1.0" encoding="UTF-8"?>
<svg version="1.1" viewBox="0 0 1024 1024" width="1024" height="1024" xmlns="http://www.w3.org/2000/svg">
<path transform="translate(0)" d="m0 0h1024v1024h-1024z" fill="#323030"/>
<path transform="translate(782)" d="m0 0h242v291l-5-1v-3l-2-1 4-1-5-1-4-6-2-5-7-1-3 1-2-4-3-1-1 4h-10l-6-9-3-5-12-2-21 1-16 1h-15l-5 1h-8l-18 4h-8l-1 2-9-1-1-5-7-1-6-2-6 2-16 3-21 3-3-2 1-2 16-4 10-2-2-3-11-1-17 2h-9l-1-3h-2v-2l-3-1h6v-5l-9-1-7-1v-1l-6-1v-2l-7-2-3-3-11-4-3-1v-2l-4-1-3-2-18-6v-2l-4-1-5-3v-2l-6-1-2-2v-3l-12-2-2-2v-13l2-7 4-6 6 2 13 8 11 6 11 8 16 7 8 4 23 9 28 8 25 5 26 3 52 3 26 1 29 4 12 2 4 1h12l2 2h6v-8l3-5v-13l-1-1h-17l-2-6-3-3-3-18-5-3-2-6-3-7v-2h-2v-2h3l1-6 2-2 1-8 3-6v-3h-2l-1-5-4-3h-9l1 3 5 3h4v2h-3v2h2v12l-2 2h-4v-2l-2-1 1-2-3-1 3-1-2-8-3 2-8 1 1 4 5 3 1 3-1 2-8 1-9-2-2-2v-6l1-2h2v-2l4-3v-2l-6-3v-2l3-2h4l-5-10-8-1-1-5v-1l-8-1-4 1-1-7h-2l-1-5-3-1-4-1-2-1v-4-2l-5-1-3-7-1-6-7 1-4-4-4-1-1 2v-2l-7 3-1 6h-4l-3-3-5-1v-2h-2l1 4h-2v2l-4-2 1-6 5-1 1-9v-2l-3-1 1-2h-2l1-3-3-2-1 3h-4v-2h-6l-2-10-4-5 1-6-3-8v-4h6v2l10-2 5 2 2-6 2-1 2-8v-5l4-2 2-3 5 1 11 2h5l2-2 1-4h-14l-9 1-18-1h-38l-34-1z" fill="#4A4847"/>
<path transform="translate(678,306)" d="m0 0 7 1 29 9 27 6 32 4 15 1 64 2 14 2 10 4 10 9 5 8 1 6 4 2v10l-4 8-10 10-13 8-15 8-29 11-27 8-32 7-32 5-36 3-24-1-24-3-36-7-30-9-32-12-22-7-19-4-8-1h-16l-18 3-16 5-21 9-26 12-21 7-25 6-9 1h-21l-17-3-24-7-19-10-11-9-7-7-10-14-7-15-3-10v-26l2 1 2 9 10 19 8 11 9 10 14 11 10 6 17 7 18 4 8 1h23l21-3 27-8 27-10 30-10 24-5 9-1h13l23 3 19 5 28 10 27 9 36 9 26 4 20 2h26l24-2 26-4 35-7 28-8 22-8 27-13 13-9 5-6v-5l-10-3-11-4h-17l-21 6-27 8-32 9-11 1 4-2 24-7 50-18-15 3-32 9-38 8-23 3h-7v-1l24-5 27-7 24-7 23-8-30 6-21 5-23 5-23 3-12 1h-11v-1l29-4 24-6 21-6 17-5-10 1-46 9-36 4h-27v-1l37-4 27-5 23-6-19 2-21 3-31 1-9-1v-1l31-4 22-4h-51l-17-2 3-2 24-3-24-2-7-1-4-2 4-1 6-3 9-11z" fill="#F9F9F9"/>
<path transform="translate(179,237)" d="m0 0 2 1-11 10h-2l-2 4-8 9-9 14-6 12-6 18-3 21v30l3 21 4 15 7 18 10 20 10 15 9 11 13 15 8 7 15 12 24 14 18 8 19 7 29 6 21 2h43l27-3 34-6 65-14 43-8 30-5 22-4 36-6 19-3 23-2h17l25 3 17 4 8 3-4 1-9-2h-52l-28 3-28 5-31 7-47 11-85 22-29 7-38 7-20 2h-36l-20-2-26-5-15-4-25-10-20-11-22-15-13-11-10-9-7-8-11-14-11-17-10-19-8-22-5-19-2-16v-30l2-17 7-23 11-23 8-12 11-12 11-9z" fill="#F9F9F9"/>
<path transform="translate(529,575)" d="m0 0h11l10 3 8 5 8 9 4 13v65l-1 20-3 8-6 7-6 4-9 3-11 1-12-2-11-6-6-7-3-8v-86l2-9 5-8 5-5 8-5z" fill="#DFDFDF"/>
<path transform="translate(784,575)" d="m0 0 14 2 9 5 8 9 2 5 1 10v76l-2 13-6 9-10 6-6 2h-16l-13-4-8-7-4-8-1-4v-35l1-57 4-8 5-6 8-5 6-2z" fill="#DFDFDF"/>
<path transform="translate(254,577)" d="m0 0h42l12 4 8 7 5 10 1 8v28l-4 11-9 8h-3l8 23 10 30 1 6h-22l-8-25-9-26v-3h-10l1 38v15l-1 1h-22z" fill="#FAFAFA"/>
<path transform="translate(419,577)" d="m0 0h42l12 4 9 8 5 12v32l-3 10-6 7-5 3 1 7 6 18 11 34-23-1-8-25-9-27v-2l-8 1-3-1 1 2v52l-1 1h-19l-1-1-1-51z" fill="#FAFAFA"/>
<path transform="translate(191,256)" d="m0 0 2 1-12 9-8 8-16 24-4 12-2 18v22l3 20 8 26 8 18 9 14 8 10 9 10 7 8 10 9 17 12 13 8 17 8 19 7 19 4 23 3 16 1h21l37-3 46-8 36-8 13-3 19-3-25 4-36 7-47 8-35 4h-32l-23-3-27-6-19-7-16-8-16-9-10-8-14-12-7-7-7-8-10-12-8-13-8-16-8-24-4-19-1-10v-19l3-19 3-2v8l-3 14v10l4 31 5 16 6 16 8 14 7 11 9 10 9 11 9 9 20 15 13 8 21 10 24 8 20 4 22 2h37l25-3 72-11 16-4 37-5 19-1 33-5 38-5h5l-1-3h17l4 2-1 1 11 1 5 3-4 2-46 6-41 5-34 6-41 7-29 6-34 7-40 6-26 2h-23l-33-3-32-8-21-9-16-8-15-10-13-11-10-9-12-14-10-13-9-15-7-15-8-25-4-22v-30l3-15 5-12 13-21 11-12 8-7z" fill="#DEDEDE"/>
<path transform="translate(833,577)" d="m0 0h43l11 4 8 6 5 8 2 6v33l-3 10-6 8-10 5-9 2h-19v52l-5 1-16-1z" fill="#FAFAFA"/>
<path transform="translate(666,577)" d="m0 0h21l1 59h19l7 1-1-59 1-1h22l-1 134-2 1h-18l-1-1-1-56-25 1-1 55-1 1h-20z" fill="#FBFBFB"/>
<path transform="translate(357,577)" d="m0 0h25l7 31 10 48 7 37 3 14v5l-22-1-2-7-3-16v-3h-24l-5 25-1 2h-20l1-11 5-28 5-26z" fill="#DFDFDF"/>
<path transform="translate(483,193)" d="m0 0h7l11 7 13 10 17 11 7 5v2l12 3 6 3-2 4-11 9-8 7-5 2-6-5-2-6 1-2h-10l-10 3-14 8-10 7-17 11-13 8-18 8-16 5-11 2h-18l-15-3-13-5-16-9-13-10-15-15-7-8-8-6-10-3-19-1 2-5 5-5 10-4h12l10 3 10 6 14 14 9 11 7 7 14 9 15 5 12 2 18-1 15-4 13-5 18-10 27-18 15-8 14-5 11-2-15-7-18-10h-5l-8 16-6 10h-1v-8l4-15 5-12 4-5z" fill="#F9F9F9"/>
<path transform="translate(678,306)" d="m0 0 7 1 29 9 27 6 32 4 15 1 64 2 14 2 10 4 10 9 5 8 1 6 2 1-4 4-1-5-10-3-11-4h-17l-21 6-27 8-32 9-11 1 4-2 24-7 50-18-15 3-32 9-38 8-23 3h-7v-1l24-5 27-7 24-7 23-8-30 6-21 5-23 5-23 3-12 1h-11v-1l29-4 24-6 21-6 17-5-10 1-46 9-36 4h-27v-1l37-4 27-5 23-6-19 2-21 3-31 1-9-1v-1l31-4 22-4h-51l-17-2 3-2 24-3-24-2-7-1-4-2 4-1 6-3 9-11z" fill="#F8F8F8"/>
<path transform="translate(614,575)" d="m0 0h8l13 4 9 7 5 9 2 12v7h-20l-1-2-1-9-5-6-7-1-7 3-2 4v17l5 6 18 12 12 9 5 6 3 8v30l-5 10-9 8-8 3-12 1-14-3-8-5-7-8-3-7v-18l22-1 1 17 5 4 2 1h7l6-4 1-2v-24l-7-6-12-8-13-10-8-9-3-7v-22l4-11 7-8 8-5z" fill="#FAFAFA"/>
<path transform="translate(566,246)" d="m0 0 5 1 19 11-2 4-12 11h-2l1 5 5 4h6l8-6 8-9 5 1 16 9 4 2-6 8-8 8 1 6 4 3h6l6-4 7-9 3-3 6 1 19 8-2 5-9 10-2 5h2l4 5 3 2 7 1 10 1 25 1v1l-28 3-7 1 2 2h-10l-22-3-7-2v-2h-2l-1-2-10-3-17-10-13-9-17-9-7-5-12-12-6-3v-2l-13-4-6-5-1-7-1-4 8 5 5 5h8l8-5 10-10z" fill="#4B4948"/>
<path transform="translate(529,575)" d="m0 0h11l10 3 8 5 8 9 3 8v60l-1-2-20 1-1-56-4-5-5-2-8 1-6 6-1 56h-11l-9 1-1-1v-55l2-9 5-8 5-5 8-5z" fill="#FAFAFA"/>
<path transform="translate(784,575)" d="m0 0 14 2 9 5 8 9 2 5v64h-20l-1-59-4-4h-12l-5 6-1 57-21-1v-62l4-8 5-6 8-5 6-2z" fill="#FAFAFA"/>
<path transform="translate(178,577)" d="m0 0h25l-9 19-8 16-11 23v6l8 17 13 32 7 16 2 5h-24l-10-25-10-22-2-2-6 9-1-2 3-9-1-10-1-4v-14l8-20 10-21z" fill="#FAFAFA"/>
<path transform="translate(191,256)" d="m0 0 2 1-12 9-8 8-16 24-4 12-2 18v22l3 20 8 26 8 18 9 14 8 10 9 10 7 8 10 9 17 12 13 8 17 8 19 7 19 4 23 3 16 1h21l51-4h7v4h3v2l-7 2-28 4-26 2h-23l-33-3-32-8-21-9-16-8-15-10-13-11-10-9-12-14-10-13-9-15-7-15-8-25-4-22v-30l3-15 5-12 13-21 11-12 8-7z" fill="#F7F7F7"/>
<path transform="translate(215,577)" d="m0 0h21l1 1v134h-21l-1-56z" fill="#F8F8F8"/>
<path transform="translate(129,577)" d="m0 0h21l2 68-1 5v30l-1 31-21 1z" fill="#F9F9F9"/>
<path transform="translate(357,577)" d="m0 0h25l7 31 10 48v8l-2-4h-18l-2-6-5-30-2-15-6 36-3 9-18 3v-10z" fill="#FAFAFA"/>
<path transform="translate(164,286)" d="m0 0 2 2v8l-3 16-3-4-3 17v19l2 16 5 20 6 17 8 16 6 10 7 9 11 12 7 8 10 9 14 11 19 11 18 8 18 6 28 6 18 2h32l35-4 35-6 28-5 30-6 17-2-2 2-29 5-21 5-34 7-30 5-37 3h-21l-24-2-26-4-16-5-20-8-15-8-16-11-10-8-10-9-12-13-13-17-9-16-8-21-5-17-3-20v-22l2-18 5-14z" fill="#373534"/>
<path transform="translate(533,595)" d="m0 0 8 1 6 5 1 2v82l-3 5-3 3-3 1h-8l-7-6-1-4 1-82 5-5z" fill="#323030"/>
<path transform="translate(780,596)" d="m0 0h12l5 5v85l-5 6-5 2h-6l-6-4-2-4v-26l1-57z" fill="#323030"/>
<path transform="translate(625,658)" d="m0 0 23 4 1 1 2-2v30l-5 10-9 8-8 3-12 1-14-3-8-5-7-8-3-7v-18l22-1 1 17 5 4 2 1h7l6-4 1-2v-24z" fill="#E0E0E0"/>
<path transform="translate(174,330)" d="m0 0h1l4 20 5 19 7 16 7 12 12 17 9 10 7 8 9 8 15 11 23 12 27 9 20 4 21 2 27-1 19-2 47-7 24-4 31-5 29-3 21-1h23v1l-23 3-50 6-31 6-33 5-24 4-25 3-14 1h-20l-31-4-22-6-21-8-17-9-14-10-12-11-8-7-7-8-11-14-11-18-7-17-5-23-2-11z" fill="#F5F5F5"/>
<path transform="translate(184,272)" d="m0 0 1 2-8 18-6 25-1 20 3 24 4 15 7 17 8 14 10 14 11 13 10 10 11 9 9 7 15 9 21 9 24 7 27 4h40l25-3 48-7 37-7 24-4 25-2h8l2 2-9 2-32 3-29 6-51 9-33 5-19 2h-34l-29-5-24-7-21-9-18-11-11-9-14-12-14-15-9-12-10-17-7-16-5-16-2-11-1-11v-26l6-23 6-16z" fill="#EDEDED"/>
<path transform="translate(171,655)" d="m0 0 7 2 4 5 3 3 2 3 11 27 7 14v2h-24l-10-25-10-22-2-2-6 9-1-2 4-11 1 2 9-4z" fill="#DFDFDF"/>
<path transform="translate(460,657)" d="m0 0h7l6 3 2 3 11 33 5 16-23-1-8-25-5-15v-11z" fill="#DFDFDF"/>
<path transform="translate(254,656)" d="m0 0h1l1 6 8-3 10-1h2l1 38v15l-1 1h-22z" fill="#E0E0E0"/>
<path transform="translate(713,655)" d="m0 0 1 4 4-1h17v53l-2 1h-18l-1-1z" fill="#DFDFDF"/>
<path transform="translate(669,658)" d="m0 0h18v53l-1 1h-20v-53z" fill="#DFDFDF"/>
<path transform="translate(432,658)" d="m0 0h7l2 1v52l-1 1h-19l-1-1v-50z" fill="#DEDEDE"/>
<path transform="translate(149,653)" d="m0 0h1l1 27-1 31-21 1v-49l11-5h7l1 1z" fill="#DFDFDF"/>
<path transform="translate(844,659)" d="m0 0h10l1 2v50l-5 1-16-1v-51z" fill="#DFDFDF"/>
<path transform="translate(299,657)" d="m0 0h6l4 10 12 35 2 1 2 9h-22l-8-25-7-21v-7l2-1z" fill="#DFDFDF"/>
<path transform="translate(494,64)" d="m0 0 6 1 7 4v2l6 2 7 6 11 6 1 9 4 6v2l-9-1-13-8-11-8-9-6-5 4h-2l-1 7-8 16-9 17-3 4 1-9 8-24 8-18 6-9z" fill="#4A4847"/>
<path transform="translate(855,596)" d="m0 0h15l7 3 3 4v31l-5 6-11 2h-9z" fill="#333131"/>
<path transform="translate(572,459)" d="m0 0h19l8 1 3 2 31 1v1l-15 1v2l-63 9-24 3h-8l-13 1v-1l20-3 7-3-5-1-14-1v-1l17-2 2-1h-19v-1l41-6z" fill="#4A4847"/>
<path transform="translate(441,596)" d="m0 0 18 1 5 3 2 5v26l-4 6-6 3-15 1z" fill="#343231"/>
<path transform="translate(534,106)" d="m0 0h28l16 4 11 5 4 1v2l-9 6-14 10-9 6h-6l1-5v-12l-8-1-10-7-5-4-3-1 1-3z" fill="#4A4847"/>
<path transform="translate(226,658)" d="m0 0h9v54h-19v-50l2-2z" fill="#DEDEDE"/>
<path transform="translate(276,596)" d="m0 0h14l7 3 3 4v30l-5 6-3 1-16 1z" fill="#333131"/>
<path transform="translate(161,304)" d="m0 0h1v8l-3 14v10l4 31 5 16 6 16 8 14 7 11 9 10 9 11 9 9 20 15 13 8 21 10 24 8v2l2 1h-8l-21-7-17-8-17-10-10-8-14-12-7-7-7-8-10-12-8-13-8-16-8-24-4-19-1-10v-19l3-19z" fill="#DEDEDE"/>
<path transform="translate(607,124)" d="m0 0 4 1 14 8 4 3-2 4-4 2v2l-8 7-6 5h-9l-4 1-8-4v-5l-3-1 8-10 3-1 2-4 8-7z" fill="#4A4847"/>
<path transform="translate(174,330)" d="m0 0h1l4 20 5 19 7 16 7 12 12 17 9 10 7 8 9 8 15 11 23 12 27 9 14 3-2 2 27 3v3l-15-1-17-3-21-6-20-8-15-8-14-10-12-11-8-7-7-8-11-14-11-18-7-17-5-23-2-11z" fill="#DEDEDE"/>
<path transform="translate(477,414)" d="m0 0h14l7 1-1 2-26 7-31 11-27 9-26 4h-12l4-2 30-8 36-15 17-6z" fill="#DEDEDE"/>
<path transform="translate(191,256)" d="m0 0 2 1-12 9-8 8-16 24-4 12-2 18v22l3 20 8 26 8 18v3l-2 2-3 1-8-17-8-25-4-22v-30l3-15 5-12 13-21 11-12 8-7z" fill="#F5F5F5"/>
<path transform="translate(643,144)" d="m0 0 34 17v2h4v2h-2v2h-2v2l-7 2-6-1-11-2-6 2-6-1-3-3-2-4-2-3-2-1 10-12z" fill="#4B4948"/>
<path transform="translate(184,272)" d="m0 0 1 2-8 18-6 25-1 20 3 24 4 15 7 17 8 14 10 14 11 13 10 10 11 9 9 7 3 3-3 2-13-10-15-13-14-15-9-12-10-17-7-16-5-16-2-11-1-11v-26l6-23 6-16z" fill="#EDEDED"/>
<path transform="translate(566,246)" d="m0 0 5 1 19 11-2 4-12 11-6 1-9-6-10-6 2-4 11-11z" fill="#F9F9F9"/>
<path transform="translate(490,324)" d="m0 0h7l-3 2-16 5-19 7-21 8-24 6-30 8-28 3h-10l-19-3-17-5-16-8-19-9-13-4-10-2-1-5 13 2 21 10 22 12 21 6 12 2h23l29-4 15-5 25-6 21-6 19-8 13-4h5z" fill="#DFDFDF"/>
<path transform="translate(369,608)" d="m0 0 2 1 6 40 2 10v8h-19v-7l7-37z" fill="#353332"/>
<path transform="translate(602,267)" d="m0 0 5 1 16 9 4 2-6 8-10 10-10-6-8-6v-2l-3-1 2-4z" fill="#F9F9F9"/>
<path transform="translate(640,288)" d="m0 0 6 1 19 8-2 5-9 10-1 7-8-6-10-6-8-3 6-8z" fill="#F9F9F9"/>
<path transform="translate(392,177)" d="m0 0 4 1-1 2 5 2 13 4-1 2-32 11-2 1h-7l1-12-4-4z" fill="#4A4847"/>
<path transform="translate(253,339)" d="m0 0 11 2 12 5 22 12 23 8 16 3h29l36-7 25-6 15-4 18-6 16-6 3 1-30 12-30 8-25 6-30 5h-26l-22-5-18-6-16-8-16-7-12-3z" fill="#DEDEDE"/>
<path transform="translate(252,294)" d="m0 0 9 1 12 4 16 8 16 9 17 9 14 5 25 5 9 1h14l19-4 18-5 13-2h5l-4 2-22 5-25 6-12 1-21-2-25-6-21-9-22-12-19-8-17-3z" fill="#EBEBEB"/>
<path transform="translate(165,115)" d="m0 0 13 1 14 5 8 4v2l4 1 5 5 8 7 9 9v2l2 1h-6l-4-4v-2h-2v-2h-2v3l-2 2-4 2-4-1-3-9 1-5 1-4-5-1-2-2 1-1-2-2-20-4-7-2-4-2-2-2z" fill="#4A4847"/>
<path transform="translate(209,195)" d="m0 0h10l6 3 7 8 2 5v8l-3 7-1-3-1-6-9-4-8-7-10-4 2-4z" fill="#F8F8F8"/>
<path transform="translate(508,482)" d="m0 0 3 1-6 2-25 4-21 5-34 7-30 5-25 2-34-1v-1l30-1 35-4 35-6 28-5 30-6z" fill="#3E3C3B"/>
<path transform="translate(256,350)" d="m0 0 12 4 28 14 15 6 12 3 7 1h43l25-5 17-4 13-4 9-2 4 1-26 8-15 4-20 4-16 2h-23l-20-3-16-5-13-5-25-12-11-4z" fill="#DEDEDE"/>
<path transform="translate(206,274)" d="m0 0 8 1 8 7 1 2v9l-2 2h-8l-10-5-4-5v-6l4-4z" fill="#F9F9F9"/>
<path transform="translate(529,466)" d="m0 0h8l2 2-9 2-32 3-29 6-27 5-10-1h-10v-1l26-4 49-9z" fill="#F2F2F2"/>
<path transform="translate(174,330)" d="m0 0h1l4 20 5 19 7 16 7 12 12 17 9 10 7 8 3 3 1 4-4-2-9-8-7-8-11-14-11-18-7-17-5-23-2-11z" fill="#F1F1F1"/>
<path transform="translate(620,738)" d="m0 0h7l6 5 2 7-4 7-5 3-7-1-6-7v-6l4-6z" fill="#F6F6F6"/>
<path transform="translate(527,737)" d="m0 0h7l7 3 4 5v8l-4 5-8 2h-6z" fill="#F4F4F4"/>
<path transform="translate(254,284)" d="m0 0 9 1 16 6 16 8 28 16 16 6 38 8v1l-13-1-30-6-17-7-19-11-16-8-12-5-16-4z" fill="#F4F4F4"/>
<path transform="translate(424,737)" d="m0 0 13 1 4 4-1 8 2 2-1 5-2 2-6 1h-8z" fill="#F6F6F6"/>
<path transform="translate(129,751)" d="m0 0h92l1 3-26 1h-40l-27-1z" fill="#F5F5F5"/>
<path transform="translate(245,463)" d="m0 0 5 1 10 6 19 8 24 7 19 3 2 2-7 1h-9l-23-6-16-6-16-8-9-6z" fill="#F2F2F2"/>
<path transform="translate(532,353)" d="m0 0 1 2-26 7-33 10-22 6-36 12-23 7-11 1 4-1v-2l18-4 36-12 20-6 29-9 38-10z" fill="#4B4948"/>
<path transform="translate(257,273)" d="m0 0 9 2 18 7 22 12 18 11 16 7 9 3v1l-9-1-14-5-11-6-24-14-16-7-19-6z" fill="#F3F3F3"/>
<path transform="translate(250,317)" d="m0 0h10l12 4 16 8 12 7 18 8 30 7v1h-10l-24-6-17-8-22-11-13-4-11-1z" fill="#F4F4F4"/>
<path transform="translate(250,305)" d="m0 0h7l13 4 19 9 16 9 17 8 24 7-4 1-21-5-22-10-19-10-13-5-17-3z" fill="#F4F4F4"/>
<path transform="translate(820,750)" d="m0 0 80 1v3l-28 1h-52l-1-4z" fill="#F6F6F6"/>
<path transform="translate(290,737)" d="m0 0 5 2 4 7v2l5-5 3-5h4v22l-4-1v-11l-5 8-4-1-4-7v11l-4 1-1-5z" fill="#F6F6F6"/>
<path transform="translate(450,738)" d="m0 0h10l5 3 1 1v6l-3 4 2 5 1 4-4-1-5-6h-2v6h-5z" fill="#F8F8F8"/>
<path transform="translate(679,738)" d="m0 0h12l3 4v6l-3 3-1 3 3 1 1 4h-4l-5-6-3-1v8h-3l-1-4v-10z" fill="#F6F6F6"/>
<path transform="translate(634,464)" d="m0 0 13 1 16 2 6 3-1 2-12 2-29 3-9 2-10 2h-20v-1l61-8 3-1-4-2-11-1z" fill="#4C4A49"/>
<path transform="translate(500,737)" d="m0 0 4 2 8 8 2 1-1-10h4l1 1v19l-4 2-8-11-1-1-1 12-4-1z" fill="#F7F7F7"/>
<path transform="translate(479,319)" d="m0 0 4 1-15 5-19 7-35 10-29 7-8 1h-10l1-2 18-2 21-6 36-9z" fill="#DEDEDE"/>
<path transform="translate(235,472)" d="m0 0h6l10 6 19 9 24 8v2l2 1h-8l-21-7-17-8-15-9z" fill="#eee"/>
<path transform="translate(435,784)" d="m0 0 7 1 4 4v8l-5 4-4 1-6-5-2-4 1-5z" fill="#F4F4F4"/>
<path transform="translate(588,737)" d="m0 0 3 1 2 8 8 1v-9h4v22h-4v-9h-9v9h-4z" fill="#F8F8F8"/>
<path transform="translate(461,784)" d="m0 0h10l2 1 1 7-1 8-13 1v-16z" fill="#EAEAEA"/>
<path transform="translate(751,736)" d="m0 0 3 1 7 15 1 7h-4l-2-4-8 1-4 4-1-2 4-12z" fill="#E6E5E5"/>
<path transform="translate(432,482)" d="m0 0h7l-3 3-37 6h-12l-7-1 1-2 34-5z" fill="#F3F3F3"/>
<path transform="translate(418,378)" d="m0 0h3v2l-37 9-19 3h-31l-17-3-7-2 4-1 16 3h30l25-3z" fill="#DEDEDE"/>
<path transform="translate(251,327)" d="m0 0 13 2 21 10 22 12 17 5v2l-8-1-15-6-21-11-18-6-10-2z" fill="#F1F1F1"/>
<path transform="translate(481,737)" d="m0 0h2l8 16 1 7-4-1-1-4-8 1-2 4-3 1-1-4 6-14z" fill="#E9E9E9"/>
<path transform="translate(321,737)" d="m0 0 4 1 1 17 7-1 2-17 4 1-1 17-5 5h-7l-4-4-1-3z" fill="#F7F7F7"/>
<path transform="translate(161,304)" d="m0 0h1v8l-3 14v10l4 31 3 11v5h-2l-5-19-2-10-1-10v-19l3-19z" fill="#E0E0E0"/>
<path transform="translate(260,263)" d="m0 0 12 3 16 8 16 9 14 10-2 1-15-9-16-8-20-8-6-2z" fill="#F3F3F3"/>
<path transform="translate(586,784)" d="m0 0h5l5 6v6l-6 5-6-2-3-3v-7z" fill="#F1F1F1"/>
<path transform="translate(655,737)" d="m0 0 1 4-1 1h-9l1 4 8 1v3l-8 1v5l9-1v5h-13l-1-22z" fill="#F7F7F7"/>
<path transform="translate(476,340)" d="m0 0 3 1-30 12-30 8-25 6h-8l1-2 23-5 29-7 21-7z" fill="#DEDEDE"/>
<path transform="translate(255,738)" d="m0 0h2l8 17v4l-4-1-3-3-6 1-3 3h-2l2-8z" fill="#E4E4E4"/>
<path transform="translate(703,737)" d="m0 0 12 1v4h-8v5h8l-1 3h-7l1 4 8 1v4h-13z" fill="#F8F8F8"/>
<path transform="translate(246,190)" d="m0 0h15l9 6 1 5-3 1-17-5-6-4z" fill="#4B4948"/>
<path transform="translate(736,737)" d="m0 0 4 1-1 5h-6v16l-4 1-1-2v-16l-5 1-1-4 1-1z" fill="#F4F4F4"/>
<path transform="translate(483,356)" d="m0 0h7l-3 2-4-1zm-4 1h4v3l-13 4-11 4-13 4-7 2-8 2h-5l3-2 11-3 12-5 11-4z" fill="#626160"/>
<path transform="translate(367,737)" d="m0 0h17v5l-1 1h-6l1 16-4 1-1-1v-15l-6-2z" fill="#F6F6F6"/>
<path transform="translate(174,330)" d="m0 0h1l4 20 5 19 7 16 4 7-2 4-4-5-8-19-5-23-2-11z" fill="#E8E8E8"/>
<path transform="translate(572,737)" d="m0 0 5 2 1 4-7-1v3l8 4 1 6-5 5h-6l-4-2 1-3 8 1v-5l-6-2-3-5 5-6z" fill="#F6F6F6"/>
<path transform="translate(184,272)" d="m0 0 1 2-8 18-6 25-3 27h-1v-26l6-23 6-16z" fill="#EAEAEA"/>
<path transform="translate(303,394)" d="m0 0 11 2 15 3 21 1 21-1 11-1-4 2-17 3h-21l-19-2-16-5z" fill="#686666"/>
<path transform="translate(164,286)" d="m0 0 2 2v8l-3 16-3-4-3 17-1 17h-1v-18l4-24v-3l-3 4 1-5z" fill="#494746"/>
<path transform="translate(782)" d="m0 0h109v1l-19 2-18-1h-38l-34-1z" fill="#4B4948"/>
<path transform="translate(151,625)" d="m0 0 3 4v17l2 9-1 8-3 11-2-2v-22l1-5z" fill="#484645"/>
<path transform="translate(530,783)" d="m0 0 4 1v6l3 1-2-7h5l1 5v11l-3 1-3-6-2-1v7l-3-1-1-6v-10z" fill="#F2F2F2"/>
<path transform="translate(383,783)" d="m0 0 7 1 1 3-7-1v3l5 2 3 3-1 5-5 3-6-2-1-3h7l1-2-5-2-3-3 2-5z" fill="#F4F4F4"/>
<path transform="translate(642,342)" d="m0 0h44l4 2h19v1l-15 1h-22l-30-3z" fill="#4B4948"/>
<path transform="translate(191,256)" d="m0 0 2 1-12 9-8 8-16 24-2 5-2-4 13-21 11-12 8-7z" fill="#DEDEDE"/>
<path transform="translate(529,466)" d="m0 0h8l2 2-9 2-24 2h-12l3-3z" fill="#EFEFEF"/>
<path transform="translate(554,784)" d="m0 0h4v8l7-1v-7l4 1v15l-4 1v-6l-6 1-1 6-3-1z" fill="#F3F3F3"/>
<path transform="translate(350,738)" d="m0 0 3 1v17l8-1 1 5h-13l-1-13 1-8z" fill="#F7F7F7"/>
<path transform="translate(623,742)" d="m0 0 5 2 2 3-1 5-4 3-6-1-2-3 1-7z" fill="#353333"/>
<path transform="translate(403,783)" d="m0 0h3v9h8v-7l3-1v18l-3-1v-7l-7 1v6h-3l-1-6z" fill="#F8F8F8"/>
<path transform="translate(786,737)" d="m0 0h3l1 4v14h7l3 1-1 4-12-1-1-1z" fill="#F5F5F5"/>
<path transform="translate(476,484)" d="m0 0h5l-3 2-14 3-33 5-27 4h-6l4-2 27-4 20-4 19-2z" fill="#4B4948"/>
<path transform="translate(553,467)" d="m0 0h49v1l-14 2-22 1-9-1-4-1z" fill="#323030"/>
<path transform="translate(539,455)" d="m0 0h23v1l-38 5h-7v-1l6-2-5-1v-1z" fill="#DEDEDE"/>
<path transform="translate(312,504)" d="m0 0h12l10 1 2 1 23 1-1 2h-21l-24-2z" fill="#3E3C3B"/>
<path transform="translate(508,482)" d="m0 0 3 1-6 2-25 4-21 5-9 2-9-1v-1l23-4 30-6z" fill="#4B4948"/>
<path transform="translate(487,784)" d="m0 0h10v3l-7 1v2l6 1v2l-4 2-1 3 6-1v4h-10z" fill="#F0F0F0"/>
<path transform="translate(771,737)" d="m0 0 4 2 2 17 1 4-7-1-1-9v-12z" fill="#F3F3F3"/>
<path transform="translate(253,339)" d="m0 0 11 2 12 5 15 8v2l-9-3-16-7-12-3z" fill="#F2F2F2"/>
<path transform="translate(716,349)" d="m0 0h5l-3 2 2 2-20 2h-27v-1l37-4z" fill="#DEDEDE"/>
<path transform="translate(297,324)" d="m0 0 6 2 19 9 24 7-4 1-21-5-22-10z" fill="#EBEBEB"/>
<path transform="translate(431,382)" d="m0 0m-3 1h3v2l-21 7-17 5-11 1 4-1v-2l18-4z" fill="#4B4948"/>
<path transform="translate(490,324)" d="m0 0h7l-3 2-16 5-19 7-15 6-6-1v-1l15-4 19-8 13-4h5z" fill="#D9D9D9"/>
<path transform="translate(736,369)" d="m0 0h8v1l-24 3-22 2h-21v-1l33-3 13-1z" fill="#4B4948"/>
<path transform="translate(301,337)" d="m0 0 6 2 11 5 30 7v1h-10l-24-6-15-7z" fill="#E7E7E7"/>
<path transform="translate(635,785)" d="m0 0 7 1 1 1v9l-8-1 1 5-2-1-1-12z" fill="#E5E5E5"/>
<path transform="translate(649,472)" d="m0 0m-6 1h6v1l-22 3-9 2-10 2h-20v-1z" fill="#4B4948"/>
<path transform="translate(493,343)" d="m0 0h6v2l-19 6-8 3-16 5-4-1 18-7 12-3z" fill="#878685"/>
<path transform="translate(531,742)" d="m0 0 6 1 3 3 1 5-3 3-6 1-1-1z" fill="#363434"/>
<path transform="translate(436,495)" d="m0 0h10v2l-28 5-11-1v-1z" fill="#3E3C3C"/>
<path transform="translate(168,334)" d="m0 0 2 3 3 24 1 5v7l-3-3-3-15z" fill="#F0F0F0"/>
<path transform="translate(724,361)" d="m0 0h9v1l-17 2-19 1h-29v-1l24-2h20z" fill="#4C4A49"/>
<path transform="translate(256,350)" d="m0 0 12 4 34 17-3 1-28-13-15-6z" fill="#E1E1E1"/>
<path transform="translate(437,363)" d="m0 0 4 1-26 8-15 4h-7v-2l22-5 13-4z" fill="#E1E1E1"/>
<path transform="translate(324,357)" d="m0 0 16 2 23 1v2l-7 1h-10l-19-3-4-2z" fill="#DEDEDE"/>
<path transform="translate(263,254)" d="m0 0 7 1 18 8 6 4-3 1-14-6-15-4z" fill="#EFEFEF"/>
<path transform="translate(393,737)" d="m0 0 4 1v22h-4z" fill="#FBFBFB"/>
<path transform="translate(403,341)" d="m0 0 7 1-4 2-21 5-8 1h-10l1-2 18-2z" fill="#DEDEDE"/>
<path transform="translate(522,326)" d="m0 0h5l-3 2-14 4-10 2-10 3h-3v2l-2 1h-6l2-2 18-6h3v-2z" fill="#514F4E"/>
<path transform="translate(314,300)" d="m0 0 5 2 16 8 14 5v1l-9-1-14-5-11-6z" fill="#ECECEC"/>
<path transform="translate(307,658)" d="m0 0 2 4 9 25 4 13v5l-2-3-14-41z" fill="#F3F3F3"/>
<path transform="translate(225,446)" d="m0 0 8 6 7 6 6 4-3 3-13-10-5-5z" fill="#DEDEDE"/>
<path transform="translate(438,786)" d="m0 0 4 2 1 5-2 4-4 1-4-5 1-5z" fill="#373535"/>
<path transform="translate(129,667)" d="m0 0h1l2 42 9 1v1l-12 1z" fill="#FAFAFA"/>
<path transform="translate(756,374)" d="m0 0 9 1v1l-31 5-14 1v-1z" fill="#4E4C4B"/>
<path transform="translate(515,309)" d="m0 0v3l-14 3-14 5h-12l3-2 18-4 13-4z" fill="#4B4948"/>
<path transform="translate(771,15)" d="m0 0 5 1 1 5-4 5h-5v-8z" fill="#4B4948"/>
<path transform="translate(376,504)" d="m0 0h10v1l-5 1v1l-11 1-34-1v-1l30-1z" fill="#4B4948"/>
<path transform="translate(518,346)" d="m0 0 4 1-16 6-13 4h-3v-3z" fill="#504E4D"/>
<path transform="translate(288,275)" d="m0 0 6 2 16 10 8 6-2 1-15-9-11-6z" fill="#EFEFEF"/>
<path transform="translate(954,127)" d="m0 0 4 1 2 3 1 9-6-1-3-4 1-7z" fill="#323030"/>
<path transform="translate(435,343)" d="m0 0h6v2l-22 6h-8v-2l21-5z" fill="#ECECEC"/>
<path transform="translate(303,316)" d="m0 0 5 2 19 9 11 4-4 1-14-5-16-8z" fill="#EBEBEB"/>
<path transform="translate(532,353)" d="m0 0 1 2-26 7-10 3h-4v-2l34-9z" fill="#4D4B4A"/>
<path transform="translate(337,321)" d="m0 0 40 8v1l-13-1-30-6z" fill="#E3E3E3"/>
<path transform="translate(790,365)" d="m0 0 6 1-3 2-27 7h-6l4-2 24-7z" fill="#DEDEDE"/>
<path transform="translate(586,787)" d="m0 0h5l2 6-3 4-5-1-1-6z" fill="#393737"/>
<path transform="translate(492,470)" d="m0 0 4 1 2 2-19 4h-3l-1-4z" fill="#ECECEC"/>
<path transform="translate(210,434)" d="m0 0 4 1 9 9 2 1 1 5-4-2-10-9-2-2z" fill="#EFEFEF"/>
<path transform="translate(751,364)" d="m0 0 4 1 3 2-28 4h-7v-1l24-5z" fill="#E5E5E5"/>
<path transform="translate(410,360)" d="m0 0h6v2l-22 5h-8l1-2z" fill="#eee"/>
<path transform="translate(562,455)" d="m0 0h12l4 2-25 2h-14v-1z" fill="#4B4948"/>
<path transform="translate(730,358)" d="m0 0 11 1v1l-29 3h-11v-1z" fill="#DEDEDE"/>
<path transform="translate(456,364)" d="m0 0m-2 1h2v2l3 1-13 4-7 2-8 2h-5l3-2 11-3 12-5z" fill="#848282"/>
<path transform="translate(193,393)" d="m0 0 4 2 8 12-1 2-5-2-6-9z" fill="#F2F2F2"/>
<path transform="translate(811,358)" d="m0 0 3 1 2 2-16 5h-7v-2z" fill="#ECECEC"/>
<path transform="translate(610,786)" d="m0 0 2 1 1 5 3 1 1-6h1l1 13h-2l-1-3-3-1-1 4h-2z" fill="#E9E9E9"/>
<path transform="translate(696,341)" d="m0 0h7v1l17 1v1l-31 1-9-1v-1z" fill="#E6E6E6"/>
<path transform="translate(267,243)" d="m0 0 9 2 12 6-4 1-17-5z" fill="#E9E9E9"/>
<path transform="translate(461,784)" d="m0 0h8l1 2-7 1 1 13h-3l-1-3v-12z" fill="#F4F4F4"/>
<path transform="translate(168,313)" d="m0 0 2 4v12l-2 15h-1v-26z" fill="#DEDEDE"/>
<path transform="translate(315,312)" d="m0 0 6 2 12 5 4 2v1l-9-1-14-7z" fill="#eee"/>
<path transform="translate(340,349)" d="m0 0 10 1 11 1 2 2-7 1-17-1v-1l5-1z" fill="#4B4948"/>
<path transform="translate(277,492)" d="m0 0 5 1 3-1 9 3v2l2 1h-8l-13-4z" fill="#E8E8E8"/>
<path transform="translate(529,466)" d="m0 0h8l2 2-9 2h-11l-3-3z" fill="#DEDEDE"/>
<path transform="translate(483,692)" d="m0 0 2 1 6 19-18-1 4-2h10l-3-11z" fill="#F3F3F3"/>
<path transform="translate(470,136)" d="m0 0h2l-1 5-6 6h-6l10-10z" fill="#4B4948"/>
<path transform="translate(565,784)" d="m0 0 4 1v15l-4 1v-8l-3-1h3z" fill="#F4F4F4"/>
<path transform="translate(305,487)" d="m0 0h9l10 2v1l-7 1h-9v-2l-4-1z" fill="#F5F5F5"/>
<path transform="translate(343,341)" d="m0 0 9 1 14 3v1h-14l-6-1v-3z" fill="#565453"/>
<path transform="translate(423,336)" d="m0 0h6v2l-15 4h-7v-2z" fill="#EDEDED"/>
<path transform="translate(324,489)" d="m0 0h6l-4 1 2 2h8l-4 2-13-1-6-1 4-2z" fill="#DEDEDE"/>
<path transform="translate(173,295)" d="m0 0 2 1-2 11-2 10h-2v-8z" fill="#E4E4E4"/>
<path transform="translate(452,477)" d="m0 0h5l-3 2-18 4h-14v-1l26-4z" fill="#DEDEDE"/>
<path transform="translate(187,406)" d="m0 0 6 2 5 9-3 2-8-12z" fill="#DFDFDF"/>
<path transform="translate(643,787)" d="m0 0h1v13h-8l-1-5 8 1z" fill="#4B4948"/>
<path transform="translate(326,490)" d="m0 0h10l4 1v2l2 2h-10v-2h-5z" fill="#F3F3F3"/>
<path transform="translate(382,366)" d="m0 0 8 1v1l-19 3h-7l2-2z" fill="#DFDFDF"/>
<path transform="translate(195,692)" d="m0 0 3 3 7 14v2h-6l1-5-4-8z" fill="#F4F4F4"/>
<path transform="translate(836,347)" d="m0 0 4 1-16 6h-2l1-4z" fill="#3D3B3B"/>
<path transform="translate(454,742)" d="m0 0h6l2 2v3l-2 1h-6z" fill="#353333"/>
<path transform="translate(516,337)" d="m0 0h3v2l-13 4h-7l4-2h3v-2z" fill="#6D6B6A"/>
<path transform="translate(502,331)" d="m0 0h5l-4 2-13 4h-3v2l-2 1h-6l2-2z" fill="#C9C9C9"/>
<path transform="translate(682,329)" d="m0 0h8v1l-6 1h-8l1 3h-7l-5-1 3-2z" fill="#DEDEDE"/>
<path transform="translate(450,321)" d="m0 0h10v1l-17 4-7-1 4-2z" fill="#4B4948"/>
<path transform="translate(682,742)" d="m0 0h7v5l-1 1h-6z" fill="#333131"/>
<path transform="translate(463,794)" d="m0 0h8v5h-8z" fill="#42403F"/>
<path transform="translate(586,784)" d="m0 0h5l4 4v2l-3 1-1-3h-5l-2 2-2-1 2-4z" fill="#E7E7E7"/>
<path transform="translate(274,346)" d="m0 0 5 2 12 6v2l-9-3-8-4z" fill="#EDEDED"/>
<path transform="translate(466,786)" d="m0 0 4 1 1 4-1 1h-7v-5z" fill="#3F3D3C"/>
<path transform="translate(281,338)" d="m0 0 5 2 12 6v2l-9-3-9-5z" fill="#F1F1F1"/>
<path transform="translate(535,784)" d="m0 0h5l1 5-1 5-1-2h-6l1-2 3 1z" fill="#E5E5E5"/>
<path transform="translate(325,479)" d="m0 0 14 1v3l-15-1z" fill="#DFDFDF"/>
<path transform="translate(493,343)" d="m0 0h6v2l-12 4-4-2z" fill="#666463"/>
<path transform="translate(778,41)" d="m0 0h5l1 4h-2v4l-5-2v-5z" fill="#4B4948"/>
<path transform="translate(534,792)" d="m0 0h5l2 4-1 5h-2l-4-7z" fill="#F5F5F5"/>
<path transform="translate(400,392)" d="m0 0m-4 1h4v2l-13 3h-5l4-1v-2z" fill="#7A7978"/>
<path transform="translate(636,787)" d="m0 0 6 1v4l-6 1-1-5z" fill="#3D3B3A"/>
<path transform="translate(616,785)" d="m0 0h3l1 6v10l-3-1h2l-2-9-2-3z" fill="#4B4948"/>
<path transform="translate(430,750)" d="m0 0 7 1v4l-6 1-1-1z" fill="#383636"/>
<path transform="translate(449,479)" d="m0 0 8 1v1l-15 3-4-1 3-2z" fill="#EDEDED"/>
<path transform="translate(330,348)" d="m0 0 10 1 8 2v1h-10l-9-2z" fill="#DEDEDE"/>
<path transform="translate(161,304)" d="m0 0h1v8l-2 8h-2l1-14z" fill="#DEDEDE"/>
<path transform="translate(405,749)" d="m0 0h12l-1 3h-11z" fill="#F8F8F8"/>
<path transform="translate(151,625)" d="m0 0 3 4-1 17-2 3z" fill="#4B4948"/>
<path transform="translate(403,372)" d="m0 0h6v2l-9 2h-7v-2z" fill="#E6E6E6"/>
<path transform="translate(490,787)" d="m0 0h7v7l-4-1h3v-2h-6z" fill="#434140"/>
<path transform="translate(583,788)" d="m0 0h1l2 11-4-2-1-1v-7z" fill="#EFEFEF"/>
<path transform="translate(299,485)" d="m0 0 9 1-3 2 3 2-9-1-4-2h4z" fill="#EAEAEA"/>
<path transform="translate(303,316)" d="m0 0 5 2 8 4-1 3-11-6z" fill="#eee"/>
<path transform="translate(302,283)" d="m0 0 5 2 11 8-2 1-14-9z" fill="#ECECEC"/>
<path transform="translate(507,319)" d="m0 0h5v2l-10 3h-5l1-2z" fill="#666464"/>
<path transform="translate(771,57)" d="m0 0 4 1-1 5h-4l-1-5z" fill="#4B4948"/>
<path transform="translate(190,385)" d="m0 0 3 4 2 5-3 2-4-7z" fill="#DFDFDF"/>
<path transform="translate(174,370)" d="m0 0 2 3 2 8-3 1-3-8 1-3z" fill="#E7E7E7"/>
<path transform="translate(449,358)" d="m0 0 6 1v1l-11 2v2l-6-1 4-2z" fill="#545252"/>
<path transform="translate(533,783)" d="m0 0h6l-3 2 1 1v5l-4-1z" fill="#454343"/>
<path transform="translate(410,360)" d="m0 0h6v2l-11 2-3-2z" fill="#E7E7E7"/>
<path transform="translate(880,355)" d="m0 0 9 3 1 5-2 2-3-5v-2l-5-2z" fill="#4B4948"/>
<path transform="translate(435,784)" d="m0 0 7 1-1 2-8 1-3 2 2-4z" fill="#EBEBEB"/>
<path transform="translate(430,741)" d="m0 0 7 2-1 3h-6z" fill="#363434"/>
<path transform="translate(414,499)" d="m0 0 11 1v1l-12 1-6-1v-1z" fill="#474544"/>
<path transform="translate(788,340)" d="m0 0h9v1l-12 3h-3v-3z" fill="#42403F"/>
<path transform="translate(337,321)" d="m0 0 11 2 2 2-12-1-4-2z" fill="#E8E8E8"/>
<path transform="translate(291,332)" d="m0 0 5 2 5 3-4 1-6-3z" fill="#eee"/>
<path transform="translate(197,417)" d="m0 0h2l3 4-2 4-4-4z" fill="#F0F0F0"/>
</svg>
